<svg width="218" height="221" viewBox="0 0 218 221" fill="none" xmlns="http://www.w3.org/2000/svg">
<g filter="url(#filter0_d)">
<circle cx="107" cy="105" r="105" fill="white"/>
<path d="M127.472 136.203C130.318 136.203 133.047 137.333 135.06 139.346C137.072 141.358 138.203 144.088 138.203 146.934C138.203 149.78 137.072 152.509 135.06 154.522C133.047 156.534 130.318 157.665 127.472 157.665C124.626 157.665 121.896 156.534 119.884 154.522C117.871 152.509 116.741 149.78 116.741 146.934C116.741 144.088 117.871 141.358 119.884 139.346C121.896 137.333 124.626 136.203 127.472 136.203ZM127.472 141.568C126.049 141.568 124.684 142.134 123.678 143.14C122.672 144.146 122.106 145.511 122.106 146.934C122.106 148.357 122.672 149.722 123.678 150.728C124.684 151.734 126.049 152.299 127.472 152.299C128.895 152.299 130.26 151.734 131.266 150.728C132.272 149.722 132.837 148.357 132.837 146.934C132.837 145.511 132.272 144.146 131.266 143.14C130.26 142.134 128.895 141.568 127.472 141.568ZM79.1817 136.203C82.0278 136.203 84.7573 137.333 86.7697 139.346C88.7822 141.358 89.9128 144.088 89.9128 146.934C89.9128 149.78 88.7822 152.509 86.7697 154.522C84.7573 156.534 82.0278 157.665 79.1817 157.665C76.3356 157.665 73.6061 156.534 71.5936 154.522C69.5811 152.509 68.4505 149.78 68.4505 146.934C68.4505 144.088 69.5811 141.358 71.5936 139.346C73.6061 137.333 76.3356 136.203 79.1817 136.203V136.203ZM79.1817 141.568C77.7586 141.568 76.3939 142.134 75.3877 143.14C74.3814 144.146 73.8161 145.511 73.8161 146.934C73.8161 148.357 74.3814 149.722 75.3877 150.728C76.3939 151.734 77.7586 152.299 79.1817 152.299C80.6047 152.299 81.9695 151.734 82.9757 150.728C83.9819 149.722 84.5472 148.357 84.5472 146.934C84.5472 145.511 83.9819 144.146 82.9757 143.14C81.9695 142.134 80.6047 141.568 79.1817 141.568ZM138.203 71.8159H64.5498L78.2159 104.009H122.106C122.941 104.011 123.764 103.816 124.509 103.442C125.255 103.067 125.902 102.523 126.399 101.852L142.495 80.3901H142.501C143.096 79.5926 143.457 78.6452 143.545 77.654C143.633 76.6628 143.443 75.6667 142.997 74.7771C142.551 73.8876 141.867 73.1395 141.02 72.6166C140.173 72.0936 139.198 71.8164 138.203 71.8159V71.8159ZM122.106 109.375H78.4627L74.3527 117.745L73.8161 120.106C73.8161 121.529 74.3814 122.894 75.3877 123.9C76.3939 124.906 77.7586 125.472 79.1817 125.472H138.203V130.837H79.1817C77.3132 130.838 75.4769 130.351 73.8544 129.424C72.2319 128.498 70.8795 127.164 69.9309 125.554C68.9824 123.944 68.4706 122.114 68.4462 120.246C68.4219 118.378 68.8857 116.535 69.7919 114.901L73.6551 106.993L54.1674 61.0848H46.9883V55.7192H57.7194L62.2748 66.4504H138.203C140.23 66.4506 142.216 67.0251 143.931 68.1075C145.645 69.19 147.018 70.7359 147.89 72.5663C148.762 74.3968 149.097 76.4368 148.858 78.4501C148.618 80.4634 147.813 82.3676 146.536 83.9421L130.9 104.793C129.912 106.208 128.596 107.364 127.065 108.162C125.534 108.96 123.833 109.376 122.106 109.375V109.375Z" fill="#28A745"/>
</g>
<defs>
<filter id="filter0_d" x="0" y="0" width="218" height="221" filterUnits="userSpaceOnUse" color-interpolation-filters="sRGB">
<feFlood flood-opacity="0" result="BackgroundImageFix"/>
<feColorMatrix in="SourceAlpha" type="matrix" values="0 0 0 0 0 0 0 0 0 0 0 0 0 0 0 0 0 0 127 0"/>
<feOffset dx="2" dy="7"/>
<feGaussianBlur stdDeviation="2"/>
<feColorMatrix type="matrix" values="0 0 0 0 0 0 0 0 0 0 0 0 0 0 0 0 0 0 0.25 0"/>
<feBlend mode="normal" in2="BackgroundImageFix" result="effect1_dropShadow"/>
<feBlend mode="normal" in="SourceGraphic" in2="effect1_dropShadow" result="shape"/>
</filter>
</defs>
</svg>
