<svg width="612" height="632" viewBox="0 0 612 632" fill="none" xmlns="http://www.w3.org/2000/svg">
<mask id="mask0" mask-type="alpha" maskUnits="userSpaceOnUse" x="0" y="0" width="612" height="632">
<rect width="612" height="632" fill="black"/>
</mask>
<g mask="url(#mask0)">
<path d="M448.562 200.759C468.077 163.584 428.412 137.805 376.552 125.162C380.454 116.294 381.585 104.685 370.582 93.6014C356.473 79.4153 365.85 58.75 365.85 58.75C365.85 58.75 336.235 86.0678 354.934 104.904C361.831 111.847 365.422 117.944 367.139 123.043C352.823 120.092 338.326 118.095 323.745 117.063C328.1 105.225 328.523 90.3567 314.801 76.1197C296.015 56.6055 308.525 28.1875 308.525 28.1875C308.525 28.1875 269.033 65.7488 293.967 91.6454C303.07 101.089 307.863 109.402 310.186 116.371C294.731 115.907 279.857 116.584 266.644 118.433C268.218 110.818 266.904 102.062 258.504 93.6065C244.395 79.4204 253.777 58.75 253.777 58.75C253.777 58.75 224.157 86.0678 242.862 104.904C248.719 110.803 252.153 116.07 254.124 120.659C251.893 121.148 249.728 121.678 247.645 122.254C183.249 116.228 155.162 129.533 167.994 155.633C145.601 178.025 154.016 203.581 182.037 223.135C196.656 283.349 200.42 333.812 310.527 333.812C408.775 333.812 422.35 293.623 434.519 242.186C471.031 234.917 463.253 217.415 448.562 200.759V200.759ZM439.46 194.743C427.23 220.823 374.153 240.454 310.527 240.454C246.906 240.454 193.829 220.823 181.594 194.743C181.334 193.969 181.085 193.164 180.835 192.379C186.662 177.597 205.601 164.771 232.2 156.183C225.95 162.224 224.651 171.245 241.099 174.409C245.806 175.315 258.729 172.178 253.08 156.143C252.29 153.901 251.001 152.399 249.417 151.492C267.694 147.31 288.44 144.901 310.527 144.901C313.002 144.901 315.432 144.987 317.872 145.043C305.128 149.566 294.731 163.503 320.755 167.614C326.501 168.52 342.276 165.383 335.379 149.347C334.777 147.918 333.811 146.671 332.578 145.731C356.962 147.524 379.053 152.22 396.912 158.99C381.208 158.114 363.787 167.792 391.686 181.418C397.671 184.342 415.855 187.026 413.354 169.32C413.174 168.041 412.722 166.815 412.03 165.724C426.308 173.247 436.266 182.37 440.214 192.379L439.46 194.743Z" fill="black"/>
<path d="M276.607 205.661C293.076 205.661 304.058 190.772 312.661 184.945C324.682 176.795 354.909 173.616 328.289 172.975C303.039 172.368 271.865 192.866 251.032 191.455C216.537 189.112 251.867 205.661 276.607 205.661" fill="black"/>
<path d="M312.192 236.078C318.009 237.198 333.999 233.317 327.005 213.487C319.105 191.049 271.279 228.203 312.192 236.078Z" fill="black"/>
<path d="M221.645 186.997C216.087 179.152 208.029 169.204 204.693 174.384C200.134 181.47 198.697 195.727 202.008 196.359C227.966 201.335 226.148 193.348 221.645 186.997" fill="black"/>
<path d="M372.547 190.176C377.229 184.379 367.882 170.427 361.881 172.867C352.488 176.687 347.074 174.1 342.948 179.896C333.285 193.471 366.185 198.045 372.547 190.176Z" fill="black"/>
<path d="M369.624 206.791C362.89 203.822 364.479 213.77 354.531 205.788C347.41 200.073 332.088 214.488 342.194 224.278C353.441 235.174 356.436 224.818 361.163 225.689C370.77 227.457 387.289 214.585 369.624 206.791Z" fill="black"/>
<path d="M257.653 210.193C254.144 206.739 249.437 210.906 246.778 215.99C244.145 214.696 242 214.395 242 214.395C239.988 208.66 234.003 204.727 234.003 204.727C234.003 204.727 234.548 210.692 235.338 213.601C228.726 211.253 228.522 199.435 228.522 199.435C228.522 199.435 224.085 202.089 224.488 206.597C217.209 200.724 211.01 203.469 211.01 203.469C211.01 203.469 220.245 208.665 221.518 212.169C216.333 212.572 213.307 214.365 211.545 218.537C211.55 218.572 221.793 213.662 229.373 217.207C226.383 219.652 227.87 225.76 227.87 225.76C234.925 218.282 240.559 219.082 245.067 220.421C244.522 222.708 244.557 224.797 245.525 226.065C253.344 236.344 280.58 234.032 287.895 226.432C296.753 217.238 272.14 224.45 257.653 210.193" fill="black"/>
<path d="M276.893 171.473C274.576 176.129 274.56 179.644 277.24 183.301C277.275 183.311 278.32 172.003 285.252 167.317C285.818 171.137 291.818 172.991 291.818 172.991C287.02 155.998 301.028 155.112 300.961 149.015C293.535 149.641 289.317 155.041 289.317 155.041C283.362 153.823 276.909 156.936 276.909 156.936C276.909 156.936 282.313 159.528 285.212 160.348C279.802 164.816 269.553 158.922 269.553 158.922C269.553 158.922 269.553 164.097 273.628 166.059C264.852 169.293 264.027 176.017 264.027 176.017C264.027 176.017 273.226 170.765 276.893 171.473" fill="black"/>
<path d="M407.043 194.677C409.152 190.673 406.075 186.512 406.075 186.512C406.075 186.512 401.343 197.346 394.339 196.974C396.183 194.59 398.985 189.293 398.985 189.293C398.985 189.293 391.945 190.633 387.881 195.151C387.881 195.151 381.279 193.322 374.942 197.234C378.518 202.175 390.305 194.55 396.555 211.064C396.555 211.064 400.274 206.006 398.455 202.598C406.819 202.236 414.388 210.702 414.414 210.671C414.383 206.138 412.285 203.326 407.644 200.963C410.171 198.217 420.694 196.969 420.694 196.969C420.694 196.969 416.029 192.054 407.043 194.677" fill="black"/>
<path d="M199.691 412.547C199.806 413.204 198.945 413.693 197.106 414.016C195.267 414.339 194.031 414.623 193.398 414.87C191.366 415.632 189.344 417.612 187.333 420.807C183.759 425.902 178.751 437.475 172.307 455.527C165.841 473.447 160.847 489.35 157.328 503.234C157.351 503.365 157.319 503.574 157.234 503.859C154.419 515.589 153.369 523.49 154.083 527.561C154.775 531.5 156.434 533.24 159.06 532.779C162.606 532.157 166.513 528.967 170.782 523.209C175.183 517.428 178.966 511.214 182.131 504.567C182.603 503.401 183.148 503.035 183.766 503.468C184.515 503.878 184.587 504.677 183.984 505.866C182.583 508.684 181.678 510.467 181.267 511.216C180.857 511.965 180.2 513.231 179.294 515.014C178.366 516.666 177.534 518.098 176.799 519.31C176.041 520.391 175.067 521.78 173.876 523.478C172.793 525.022 171.753 526.423 170.755 527.681C165.914 533.268 161.393 536.431 157.191 537.168C149.574 538.505 145.062 535.168 143.657 527.157C142.596 521.116 143.586 512.481 146.624 501.254C149.771 489.872 154.145 475.838 159.745 459.153C165.477 442.444 169.906 431.04 173.032 424.941C169.772 425.649 165.301 428.328 159.62 432.98C154.069 437.609 149.682 442.305 146.456 447.068C143.231 451.83 138.655 458.928 132.73 468.36C126.804 477.793 122.565 484.493 120.013 488.461C127.938 487.341 134.265 486.366 138.993 485.536C143.852 484.684 148.144 482.915 151.87 480.231C151.45 482.47 150.286 484.705 148.376 486.936C146.574 489.012 143.858 490.504 140.227 491.412C136.704 492.165 132.644 492.945 128.048 493.752C123.452 494.558 119.106 495.253 115.012 495.836C88.3426 535.171 65.224 556.555 45.6563 559.989C41.4538 560.726 37.9748 560.186 35.2191 558.368C32.5948 556.528 30.9831 553.9 30.3839 550.486C30.2456 549.698 30.1039 548.504 29.9587 546.905C29.8135 545.306 30.2292 542.661 31.206 538.97C32.3141 535.256 33.0651 533.364 33.4591 533.295C34.4867 532.98 34.7758 533.47 34.3266 534.768C33.2877 538.876 32.9525 541.98 33.3213 544.081C33.69 546.183 34.2948 547.701 35.1358 548.636C37.3731 551.357 40.987 552.28 45.9774 551.404C61.6053 548.662 82.1642 530.434 107.654 496.721C92.5448 498.56 83.7424 499.699 81.2472 500.137C71.2664 501.888 64.9225 504.694 62.2154 508.553C60.2664 511.331 59.6375 514.691 60.3288 518.631C60.5132 519.681 60.8174 520.643 61.2413 521.516C59.2023 521.468 57.7542 521.316 56.8971 521.06C56.1714 520.781 55.5965 520.206 55.1725 519.332C55.1195 518.259 54.9156 517.482 54.5607 517.003C54.1829 516.392 54.1874 515.647 54.5745 514.767C55.0928 513.864 55.3831 513.204 55.4453 512.787C55.6158 512.215 56.0489 511.598 56.7447 510.934C57.5487 510.116 58.1247 509.541 58.4726 509.21C58.9288 508.723 59.5704 508.137 60.3975 507.45C61.356 506.741 62.0863 506.274 62.5886 506.051C63.0678 505.696 63.7866 505.164 64.7451 504.454C74.8155 497.813 84.2502 493.721 93.0491 492.177C98.4335 491.232 105.166 490.254 113.246 489.242C120.439 479.316 128.374 467.839 137.053 454.809C145.708 441.649 154.982 432.779 164.873 428.201L154.038 430.102C124.621 435.264 109.759 444.302 109.453 457.216C109.483 458.158 109.637 459.417 109.913 460.993C110.167 462.438 111.162 463.481 112.899 464.124C113.625 464.403 113.443 464.909 112.353 465.641C111.264 466.374 110.499 466.644 110.059 466.45C108.584 465.761 107.168 464.25 105.811 461.916C104.585 459.559 103.892 457.921 103.73 457.002C103.016 452.931 103.533 449.32 105.282 446.171C107.162 442.998 109.89 440.421 113.469 438.439C117.023 436.326 120.308 434.599 123.321 433.258C126.312 431.786 130.333 430.403 135.386 429.111C142.54 427.449 149.4 426.042 155.966 424.89L177.438 421.122C177.701 421.076 177.778 421.13 177.67 421.285C186.496 415.269 192.157 412.042 194.652 411.604C197.804 411.051 199.484 411.365 199.691 412.547ZM236.292 468.869C236.592 470.576 235.902 473.201 234.222 476.745C232.674 480.265 230.505 486.805 227.715 496.365C224.902 505.793 223.703 511.689 224.118 514.053C224.51 516.285 225.625 517.24 227.464 516.918C229.434 516.572 231.721 514.952 234.327 512.058C237.041 509.01 239.338 505.899 241.218 502.727C243.229 499.531 245.833 495.081 249.028 489.376C249.36 489.724 249.595 490.292 249.733 491.08C249.871 491.868 249.283 493.528 247.967 496.06C242.86 506.297 238.319 513.591 234.345 517.944C230.37 522.296 226.545 524.795 222.868 525.44C218.665 526.178 216.207 524.511 215.492 520.44C214.755 516.237 215.75 509.565 218.478 500.423C221.313 491.126 223.538 483.358 225.15 477.119C225.979 474.13 224.968 473.766 222.116 476.027C208.781 487.978 199.901 505.645 195.476 529.029C194.688 529.167 193.181 529.837 190.955 531.04C188.884 532.351 187.651 533.041 187.257 533.11C186.732 533.203 186.617 532.546 186.912 531.141C187.361 529.843 188.028 527.087 188.912 522.87C189.928 518.631 191.088 513.283 192.392 506.827C194.96 494.464 196.71 486.306 197.641 482.352C191.994 491.059 187.004 499.651 182.67 508.127C181.981 509.602 181.499 509.551 181.222 507.975C181.038 506.925 181.205 505.948 181.723 505.045C189.019 491.852 194.529 481.206 198.252 473.107C204.657 471.036 208.304 469.448 209.193 468.344C210.083 467.241 210.659 466.666 210.921 466.62C211.184 466.574 211.361 466.813 211.454 467.339C211.677 467.841 211.421 468.698 210.687 469.91C210.06 470.967 206.563 481.125 200.195 500.382C205.047 491.002 211.122 482.423 218.421 474.644C223.114 469.76 227.168 467.018 230.583 466.419C233.997 465.819 235.9 466.636 236.292 468.869ZM197.957 567.377L198.427 572.371C199.464 578.281 202.163 582.477 206.525 584.961C210.778 587.599 215.597 588.445 220.981 587.5C226.234 586.578 230.866 584.818 234.877 582.219C238.78 579.774 242.189 577.213 245.103 574.536C248.018 571.859 250.697 568.613 253.142 564.8C255.586 560.987 257.706 557.637 259.5 554.75C261.318 551.994 263.125 548.022 264.922 542.833C266.851 537.622 268.275 533.784 269.197 531.321C270.25 528.835 271.517 524.484 272.998 518.268C274.479 512.052 275.41 508.098 275.79 506.407C276.278 504.561 277.217 500.268 278.606 493.526C279.995 486.785 280.752 482.997 280.876 482.163C277.787 490.015 272.836 498.058 266.023 506.293C259.319 514.374 253.472 518.852 248.481 519.727C246.117 520.142 244.682 518.905 244.175 516.016L243.933 514.637C243.562 507.121 245.254 498.634 249.009 489.176C256.372 470.963 265.569 460.888 276.6 458.953L299.254 454.977C299.911 454.862 300.285 455.067 300.377 455.592C300.562 456.643 300.063 457.272 298.881 457.48C295.992 457.987 293.928 460.109 292.688 463.846C290.133 470.115 286.211 484.408 280.922 506.725C275.741 528.887 271.92 543.365 269.457 550.16C267.017 557.086 263.384 564.153 258.557 571.363C250.01 584.369 239.63 591.944 227.416 594.087C222.163 595.009 217.031 594.691 212.02 593.134C203.117 590.229 197.79 583.786 196.039 573.805L195.451 570.456C195.105 568.486 195.786 567.352 197.493 567.052C197.756 567.006 197.91 567.114 197.957 567.377ZM283.025 464.323C282.587 461.828 280.727 460.868 277.444 461.444C274.161 462.02 270.818 464.57 267.415 469.093C264.012 473.616 260.63 480.572 257.269 489.961C253.884 499.218 252.527 505.751 253.195 509.56C253.471 511.135 254.201 511.82 255.383 511.612C259.191 510.944 264.94 503.979 272.631 490.717C280.298 477.323 283.763 468.525 283.025 464.323ZM343.822 445.532C346.711 445.025 348.352 445.888 348.744 448.121C349.043 449.828 348.829 451.693 348.101 453.716C347.373 455.739 346.87 457.113 346.591 457.839C346.42 458.41 346.227 458.85 346.01 459.159C345.925 459.445 345.674 459.557 345.257 459.494C344.817 459.301 344.574 459.073 344.528 458.81C344.09 456.315 341.835 455.424 337.764 456.139C333.693 456.853 329.082 461.047 323.93 468.719C329.338 483.338 333.713 492.452 337.054 496.062C338.404 497.585 340.458 498.105 343.216 497.621C348.183 496.614 355.445 487.082 365.001 469.025C365.642 469.59 365.911 470.355 365.81 471.32C365.817 472.131 365.151 473.737 363.813 476.138C358.807 485.409 353.872 492.773 349.008 498.229C345.969 501.74 342.677 503.807 339.131 504.429C335.585 505.052 332.566 504.431 330.073 502.567C327.31 499.938 323.209 491.994 317.769 478.735C311.532 490.253 307.885 499.556 306.828 506.646C306.448 508.337 304.825 509.502 301.959 510.14C299.116 510.91 297.613 510.835 297.452 509.916C297.406 509.653 297.553 508.95 297.894 507.807C298.212 506.533 299.24 502.36 300.977 495.286C302.691 488.082 303.865 483.205 304.501 480.657C305.245 477.954 306.381 473.626 307.908 467.673C309.413 461.588 310.719 456.688 311.827 452.974C316.289 439.06 319.419 429.509 321.216 424.32C325.429 412.074 331.167 401.185 338.429 391.654C345.691 382.122 353.524 376.618 361.929 375.143C364.03 374.775 365.972 375.043 367.756 375.948C369.647 376.699 370.777 378.126 371.146 380.227L372.149 385.939C372.241 386.465 371.959 386.785 371.302 386.9C370.777 386.992 370.491 386.907 370.445 386.645C369.823 383.099 367.016 381.764 362.026 382.639C357.035 383.515 352.349 385.353 347.967 388.152C343.562 390.82 339.975 394.293 337.206 398.569C334.436 402.845 331.666 408.273 328.895 414.851C322.578 429.767 316.286 454.087 310.021 487.811C312.327 483.209 314.528 479.168 316.625 475.687C315.97 473.5 316.042 471.593 316.839 469.964C317.767 468.312 318.719 466.791 319.693 465.402C320.645 463.881 321.271 462.823 321.573 462.229L322.752 465.474C331.152 453.17 338.175 446.523 343.822 445.532ZM410.953 450.606C409.893 444.565 407.459 441.878 403.65 442.547C399.973 443.192 395.357 448.131 389.803 457.363C384.356 466.441 380.655 475.822 378.7 485.506L376.499 497.263C375.711 497.401 374.204 498.072 371.978 499.275C369.753 500.477 368.574 501.09 368.443 501.113C367.786 501.229 367.617 500.649 367.935 499.375C368.384 498.078 369.051 495.321 369.935 491.105C370.951 486.865 372.111 481.518 373.415 475.062C375.984 462.699 377.733 454.54 378.664 450.586C373.017 459.293 368.027 467.885 363.693 476.362C363.005 477.836 362.522 477.786 362.245 476.21C362.061 475.159 362.228 474.182 362.746 473.279C370.043 460.086 375.552 449.44 379.275 441.342C385.68 439.27 389.327 437.682 390.217 436.579C391.106 435.475 391.682 434.9 391.945 434.854C392.207 434.808 392.385 435.048 392.477 435.573C392.7 436.075 392.499 436.855 391.872 437.913C391.245 438.97 388.217 447.556 382.787 463.671C385.388 457.664 388.92 451.562 393.383 445.364C397.977 439.143 402.178 435.698 405.986 435.03C409.926 434.339 412.775 435.531 414.533 438.606C415.174 439.171 415.563 439.847 415.701 440.635C415.839 441.423 415.893 442.497 415.86 443.856C415.805 445.084 415.715 446.115 415.591 446.949C414.722 450.486 414.017 452.64 413.476 453.412C413.197 454.138 412.61 454.647 411.714 454.94C411.559 454.831 411.405 454.723 411.25 454.615C411.26 453.124 411.16 451.788 410.953 450.606ZM448.155 472.302C446.144 475.498 443.148 478.867 439.166 482.408C435.294 485.795 431.519 487.811 427.841 488.457C424.296 489.079 422.304 488.142 421.866 485.647C421.451 483.283 421.647 480.541 422.453 477.422C423.004 475.159 426.298 463.075 432.336 441.168C426.689 449.875 421.699 458.467 417.366 466.943C416.677 468.418 416.194 468.367 415.917 466.791C415.733 465.741 415.9 464.764 416.418 463.861C423.715 450.668 429.224 440.022 432.947 431.923C439.352 429.852 443.108 428.11 444.214 426.697C445.319 425.285 446.03 425.093 446.346 426.12C446.438 426.645 446.225 427.36 445.707 428.263C445.297 429.012 441.706 439.795 434.936 460.611C431.945 469.8 430.727 475.97 431.28 479.122C431.602 480.96 432.683 481.718 434.522 481.396C438.593 480.681 444.841 473.087 453.266 458.613L456.736 452.928C458.588 454.227 455.728 460.685 448.155 472.302ZM448.021 406.739C444.869 407.292 442.994 405.861 442.395 402.447C442.118 400.871 442.73 399.342 444.23 397.861C445.861 396.356 447.333 395.489 448.646 395.258C450.091 395.005 451.311 395.4 452.306 396.443C453.279 397.356 453.822 398.14 453.938 398.797C454.352 401.161 453.798 403.018 452.276 404.368C450.753 405.718 449.335 406.508 448.021 406.739ZM508.885 421.035C509.184 422.742 508.494 425.367 506.815 428.911C505.267 432.431 503.098 438.971 500.308 448.531C497.495 457.959 496.296 463.855 496.711 466.219C497.103 468.451 498.218 469.406 500.056 469.084C502.026 468.738 504.314 467.118 506.92 464.224C509.634 461.176 511.931 458.065 513.811 454.893C515.822 451.697 518.425 447.247 521.621 441.542C521.953 441.89 522.188 442.458 522.326 443.246C522.464 444.034 521.875 445.694 520.56 448.226C515.452 458.463 510.912 465.757 506.937 470.11C502.963 474.462 499.137 476.961 495.46 477.606C491.258 478.344 488.799 476.677 488.085 472.606C487.348 468.403 488.343 461.731 491.07 452.588C493.906 443.292 496.13 435.524 497.743 429.284C498.572 426.296 497.561 425.932 494.708 428.192C481.373 440.144 472.493 457.811 468.068 481.195C467.28 481.333 465.774 482.003 463.548 483.206C461.477 484.517 460.244 485.207 459.85 485.276C459.325 485.369 459.21 484.712 459.504 483.306C459.954 482.009 460.621 479.253 461.505 475.036C462.521 470.797 463.681 465.449 464.985 458.993C467.553 446.63 469.303 438.472 470.233 434.518C464.587 443.225 459.596 451.817 455.263 460.293C454.574 461.768 454.091 461.717 453.815 460.141C453.631 459.091 453.798 458.114 454.316 457.211C461.612 444.018 467.122 433.372 470.845 425.273C477.25 423.202 480.897 421.614 481.786 420.51C482.676 419.407 483.251 418.832 483.514 418.786C483.777 418.74 483.954 418.979 484.046 419.505C484.27 420.007 484.014 420.864 483.279 422.076C482.653 423.133 479.156 433.291 472.788 452.548C477.64 443.168 483.715 434.589 491.014 426.81C495.707 421.926 499.761 419.184 503.175 418.584C506.59 417.985 508.493 418.802 508.885 421.035ZM470.549 519.543L471.019 524.537C472.056 530.446 474.756 534.643 479.117 537.127C483.371 539.765 488.189 540.611 493.574 539.666C498.827 538.744 503.459 536.984 507.47 534.385C511.373 531.94 514.782 529.379 517.696 526.702C520.611 524.025 523.29 520.779 525.734 516.966C528.179 513.153 530.298 509.803 532.093 506.916C533.911 504.16 535.718 500.188 537.515 494.999C539.443 489.788 540.868 485.95 541.79 483.487C542.842 481.001 544.109 476.65 545.591 470.434C547.072 464.218 548.003 460.264 548.383 458.573C548.871 456.727 549.81 452.434 551.199 445.692C552.588 438.951 553.345 435.163 553.469 434.329C550.38 442.181 545.429 450.224 538.616 458.459C531.912 466.539 526.064 471.017 521.074 471.893C518.71 472.308 517.275 471.071 516.768 468.182L516.526 466.803C516.154 459.287 517.846 450.8 521.602 441.342C528.964 423.129 538.162 413.054 549.193 411.119L571.847 407.143C572.504 407.028 572.878 407.233 572.97 407.758C573.154 408.809 572.656 409.438 571.474 409.645C568.585 410.152 566.52 412.274 565.281 416.012C562.726 422.281 558.804 436.574 553.515 458.891C548.334 481.053 544.512 495.531 542.05 502.326C539.61 509.252 535.977 516.319 531.15 523.529C522.603 536.535 512.223 544.11 500.009 546.253C494.756 547.175 489.624 546.857 484.613 545.3C475.71 542.395 470.383 535.952 468.631 525.971L468.044 522.622C467.698 520.652 468.379 519.518 470.086 519.218C470.349 519.172 470.503 519.28 470.549 519.543ZM555.618 416.489C555.18 413.994 553.32 413.034 550.036 413.61C546.753 414.186 543.41 416.736 540.007 421.259C536.605 425.782 533.223 432.738 529.861 442.126C526.477 451.384 525.119 457.917 525.788 461.725C526.064 463.301 526.793 463.986 527.975 463.778C531.784 463.11 537.533 456.145 545.223 442.883C552.89 429.489 556.355 420.691 555.618 416.489Z" fill="black"/>
</g>
</svg>
